<svg width="15" height="15" viewBox="0 0 15 15" fill="none" xmlns="http://www.w3.org/2000/svg">
<path d="M5.0197 5.06128C5.0197 5.61353 4.57195 6.06128 4.0197 6.06128C3.46745 6.06128 3.0197 5.61353 3.0197 5.06128C3.0197 4.50903 3.46745 4.06128 4.0197 4.06128C4.57195 4.06128 5.0197 4.50903 5.0197 5.06128Z" fill="#687684"/>
<path d="M4.0197 9.31128C4.57195 9.31128 5.0197 8.86353 5.0197 8.31128C5.0197 7.75903 4.57195 7.31128 4.0197 7.31128C3.46745 7.31128 3.0197 7.75903 3.0197 8.31128C3.0197 8.86353 3.46745 9.31128 4.0197 9.31128Z" fill="#687684"/>
<path d="M5.0197 11.3113C5.0197 11.8635 4.57195 12.3113 4.0197 12.3113C3.46745 12.3113 3.0197 11.8635 3.0197 11.3113C3.0197 10.759 3.46745 10.3113 4.0197 10.3113C4.57195 10.3113 5.0197 10.759 5.0197 11.3113Z" fill="#687684"/>
<path d="M7.5197 6.06128C8.07195 6.06128 8.5197 5.61353 8.5197 5.06128C8.5197 4.50903 8.07195 4.06128 7.5197 4.06128C6.96745 4.06128 6.5197 4.50903 6.5197 5.06128C6.5197 5.61353 6.96745 6.06128 7.5197 6.06128Z" fill="#687684"/>
<path d="M8.5197 8.31128C8.5197 8.86353 8.07195 9.31128 7.5197 9.31128C6.96745 9.31128 6.5197 8.86353 6.5197 8.31128C6.5197 7.75903 6.96745 7.31128 7.5197 7.31128C8.07195 7.31128 8.5197 7.75903 8.5197 8.31128Z" fill="#687684"/>
<path d="M7.5197 12.3113C8.07195 12.3113 8.5197 11.8635 8.5197 11.3113C8.5197 10.759 8.07195 10.3113 7.5197 10.3113C6.96745 10.3113 6.5197 10.759 6.5197 11.3113C6.5197 11.8635 6.96745 12.3113 7.5197 12.3113Z" fill="#687684"/>
<path d="M12.0197 5.06128C12.0197 5.61353 11.5719 6.06128 11.0197 6.06128C10.4675 6.06128 10.0197 5.61353 10.0197 5.06128C10.0197 4.50903 10.4675 4.06128 11.0197 4.06128C11.5719 4.06128 12.0197 4.50903 12.0197 5.06128Z" fill="#687684"/>
<path d="M11.0197 9.31128C11.5719 9.31128 12.0197 8.86353 12.0197 8.31128C12.0197 7.75903 11.5719 7.31128 11.0197 7.31128C10.4675 7.31128 10.0197 7.75903 10.0197 8.31128C10.0197 8.86353 10.4675 9.31128 11.0197 9.31128Z" fill="#687684"/>
<path fill-rule="evenodd" clip-rule="evenodd" d="M2.2697 0.311279C1.16521 0.311279 0.269699 1.20667 0.269699 2.31128V12.8113C0.269699 13.9159 1.16521 14.8113 2.2697 14.8113H12.7697C13.8742 14.8113 14.7697 13.9159 14.7697 12.8113V2.31128C14.7697 1.20667 13.8742 0.311279 12.7697 0.311279H2.2697ZM12.7697 2.81128H2.2697C2.06853 2.81128 1.88542 2.89075 1.75066 3.02002C1.60808 3.15649 1.5197 3.34851 1.5197 3.56128V12.8113C1.5197 13.2255 1.85564 13.5613 2.2697 13.5613H12.7697C13.1838 13.5613 13.5197 13.2255 13.5197 12.8113V3.56128C13.5197 3.14709 13.1838 2.81128 12.7697 2.81128Z" fill="#687684"/>
</svg>
