<svg width="51" height="32" viewBox="0 0 51 32" fill="none" xmlns="http://www.w3.org/2000/svg">
<path fill-rule="evenodd" clip-rule="evenodd" d="M15.857 0.391957C17.597 0.291957 19.335 0.299957 21.075 0.299957C21.087 0.299957 29.892 0.299957 29.892 0.299957C31.666 0.299957 33.404 0.291957 35.143 0.391957C36.724 0.481957 38.264 0.673957 39.797 1.10296C43.024 2.00496 45.842 3.88896 47.879 6.55996C49.904 9.21396 51 12.463 51 15.799C51 19.139 49.904 22.386 47.879 25.04C45.842 27.71 43.024 29.595 39.797 30.497C38.264 30.926 36.724 31.117 35.143 31.208C33.404 31.308 31.666 31.299 29.926 31.299C29.914 31.299 21.107 31.3 21.107 31.3C19.335 31.299 17.597 31.308 15.857 31.208C14.277 31.117 12.737 30.926 11.204 30.497C7.97697 29.595 5.15897 27.71 3.12197 25.04C1.09697 22.386 -3.05176e-05 19.139 -3.05176e-05 15.8C-3.05176e-05 12.463 1.09697 9.21396 3.12197 6.55996C5.15897 3.88896 7.97697 2.00496 11.204 1.10296C12.737 0.673957 14.277 0.481957 15.857 0.391957Z" fill="#E9E9EA"/>
<mask id="mask0_4_2598" style="mask-type:luminance" maskUnits="userSpaceOnUse" x="0" y="0" width="51" height="32">
<path fill-rule="evenodd" clip-rule="evenodd" d="M15.857 0.391957C17.597 0.291957 19.335 0.299957 21.075 0.299957C21.087 0.299957 29.892 0.299957 29.892 0.299957C31.666 0.299957 33.404 0.291957 35.143 0.391957C36.724 0.481957 38.264 0.673957 39.797 1.10296C43.024 2.00496 45.842 3.88896 47.879 6.55996C49.904 9.21396 51 12.463 51 15.799C51 19.139 49.904 22.386 47.879 25.04C45.842 27.71 43.024 29.595 39.797 30.497C38.264 30.926 36.724 31.117 35.143 31.208C33.404 31.308 31.666 31.299 29.926 31.299C29.914 31.299 21.107 31.3 21.107 31.3C19.335 31.299 17.597 31.308 15.857 31.208C14.277 31.117 12.737 30.926 11.204 30.497C7.97697 29.595 5.15897 27.71 3.12197 25.04C1.09697 22.386 -3.05176e-05 19.139 -3.05176e-05 15.8C-3.05176e-05 12.463 1.09697 9.21396 3.12197 6.55996C5.15897 3.88896 7.97697 2.00496 11.204 1.10296C12.737 0.673957 14.277 0.481957 15.857 0.391957Z" fill="white"/>
</mask>
<g mask="url(#mask0_4_2598)">
<g filter="url(#filter0_dd_4_2598)">
<path fill-rule="evenodd" clip-rule="evenodd" d="M15.5 29.2998C22.9558 29.2998 29 23.2556 29 15.7998C29 8.34396 22.9558 2.2998 15.5 2.2998C8.04413 2.2998 1.99997 8.34396 1.99997 15.7998C1.99997 23.2556 8.04413 29.2998 15.5 29.2998Z" fill="white"/>
<path d="M15.5 29.5498C23.0939 29.5498 29.25 23.3937 29.25 15.7998C29.25 8.20589 23.0939 2.0498 15.5 2.0498C7.90605 2.0498 1.74997 8.20589 1.74997 15.7998C1.74997 23.3937 7.90605 29.5498 15.5 29.5498Z" stroke="black" stroke-opacity="0.04" stroke-width="0.5"/>
</g>
</g>
<defs>
<filter id="filter0_dd_4_2598" x="-6.50003" y="-3.2002" width="44" height="44" filterUnits="userSpaceOnUse" color-interpolation-filters="sRGB">
<feFlood flood-opacity="0" result="BackgroundImageFix"/>
<feColorMatrix in="SourceAlpha" type="matrix" values="0 0 0 0 0 0 0 0 0 0 0 0 0 0 0 0 0 0 127 0" result="hardAlpha"/>
<feOffset dy="3"/>
<feGaussianBlur stdDeviation="0.5"/>
<feColorMatrix type="matrix" values="0 0 0 0 0 0 0 0 0 0 0 0 0 0 0 0 0 0 0.06 0"/>
<feBlend mode="normal" in2="BackgroundImageFix" result="effect1_dropShadow_4_2598"/>
<feColorMatrix in="SourceAlpha" type="matrix" values="0 0 0 0 0 0 0 0 0 0 0 0 0 0 0 0 0 0 127 0" result="hardAlpha"/>
<feOffset dy="3"/>
<feGaussianBlur stdDeviation="4"/>
<feColorMatrix type="matrix" values="0 0 0 0 0 0 0 0 0 0 0 0 0 0 0 0 0 0 0.15 0"/>
<feBlend mode="normal" in2="effect1_dropShadow_4_2598" result="effect2_dropShadow_4_2598"/>
<feBlend mode="normal" in="SourceGraphic" in2="effect2_dropShadow_4_2598" result="shape"/>
</filter>
</defs>
</svg>
