<svg width="26" height="18" viewBox="0 0 26 18" fill="none" xmlns="http://www.w3.org/2000/svg">
<path fill-rule="evenodd" clip-rule="evenodd" d="M4.90703 4.34101C4.89056 4.35512 4.85824 4.3844 4.82258 4.41731C4.79673 4.44117 4.77607 4.46045 4.73331 4.50051L2.36727 6.71731C2.3053 6.77811 2.26227 6.81894 2.16228 6.91263C2.10648 6.9649 2.06552 7.00505 1.97738 7.0928C1.81348 7.2414 1.64067 7.4188 1.47872 7.60607C1.32603 7.75742 1.20402 7.9337 1.11881 8.12627C0.943383 8.62703 0.943383 9.11374 1.09965 9.56578L1.12058 9.61846C1.20648 9.80903 1.32776 9.98373 1.4787 10.1345C1.64078 10.3204 1.81358 10.4978 1.99633 10.6661C2.06552 10.7357 2.10648 10.7759 2.16228 10.8281L2.36727 11.0202L4.52446 13.0446C4.62533 13.1391 4.67487 13.185 4.73226 13.2363C4.79342 13.2967 4.85765 13.3566 4.92214 13.4135C4.93367 13.4231 7.68305 15.9974 7.68305 15.9974C7.76797 16.077 7.83647 16.1395 7.99054 16.2789C8.0069 16.2939 8.03172 16.3175 8.03935 16.325C8.07901 16.3641 8.10201 16.3867 8.11735 16.4011C8.43798 16.7018 8.80659 16.9547 9.20985 17.1503C9.62304 17.343 10.053 17.4756 10.4965 17.5487C10.9154 17.6129 11.3305 17.6473 11.7465 17.6529C11.8181 17.6542 11.8775 17.6549 12.0101 17.6562C12.1381 17.6574 12.1944 17.658 12.2637 17.6593L20.4563 17.6595C20.5408 17.658 20.5979 17.6574 20.7272 17.6562C20.8611 17.6549 20.9212 17.6542 20.998 17.6528C21.4157 17.6459 21.8337 17.6104 22.2473 17.5467C22.7006 17.4748 23.1366 17.3399 23.5437 17.1461C23.9538 16.951 24.3282 16.6957 24.6526 16.3901C24.9754 16.0865 25.2464 15.7376 25.4556 15.3561C25.6621 14.9687 25.804 14.5621 25.8803 14.1426C25.9497 13.7505 25.9865 13.357 25.9909 12.9626C25.9946 12.8814 25.9962 12.8038 25.9986 12.6322C25.9998 12.5506 26.0003 12.5146 26.0013 12.4704L26.0014 5.24082C26.0003 5.18449 25.9998 5.14872 25.9986 5.06861L25.9974 4.98538C25.9958 4.88043 25.9938 4.80168 25.9904 4.72326C25.9859 4.35202 25.9505 3.96354 25.885 3.57903C25.8052 3.15324 25.6637 2.75041 25.4631 2.37268C25.2522 1.98692 24.9831 1.64064 24.6617 1.33961C24.3413 1.03716 23.9693 0.782946 23.5616 0.588396C23.1564 0.398257 22.7285 0.265463 22.2869 0.192187C21.8633 0.128991 21.4477 0.0958451 21.0311 0.0911123C20.8933 0.085697 20.7713 0.084554 20.5015 0.084554C20.413 0.0830826 20.3097 0.0821691 20.1934 0.0817115C20.106 0.0813671 20.0364 0.0812988 19.8796 0.0812988H12.8995C12.5865 0.0812988 12.4447 0.0818545 12.2661 0.0846444C12.0078 0.084554 11.8858 0.085697 11.7287 0.0915847C11.3326 0.0955448 10.9176 0.128738 10.5069 0.190416C10.053 0.265162 9.62304 0.397722 9.21988 0.585656C8.80659 0.786097 8.43798 1.03893 8.11705 1.33998C8.10201 1.35406 8.07901 1.37666 8.04091 1.41424C8.03172 1.42325 7.99054 1.4619 7.99054 1.4619C7.83647 1.60128 7.76797 1.66378 7.68305 1.74334L7.32867 2.07538L4.97168 4.28689C4.95102 4.30234 4.92893 4.32049 4.90703 4.34101ZM19.8796 1.38339C20.0345 1.38339 20.1027 1.38345 20.1876 1.38379C20.2984 1.38422 20.3962 1.38509 20.4899 1.38655C20.7528 1.38664 20.8624 1.38767 20.9949 1.39263C21.3634 1.39707 21.7117 1.42485 22.0566 1.47622C22.354 1.52568 22.654 1.61875 22.935 1.75065C23.207 1.88043 23.4589 2.05257 23.6772 2.25864C23.8981 2.46552 24.0814 2.70137 24.2225 2.95948C24.36 3.2185 24.4596 3.50197 24.5145 3.79438C24.5674 4.10602 24.597 4.43124 24.6013 4.7572C24.6046 4.84077 24.6063 4.90974 24.6078 5.00472L24.609 5.08582C24.6102 5.16886 24.6108 5.2066 24.6118 5.25384L24.6117 12.4576C24.6108 12.4929 24.6102 12.5307 24.609 12.6151C24.6068 12.7755 24.6053 12.8455 24.6018 12.9302C24.5976 13.2765 24.567 13.6034 24.5098 13.9267C24.457 14.2171 24.3577 14.5014 24.2158 14.7677C24.0757 15.0231 23.8896 15.2628 23.6677 15.4715C23.447 15.6794 23.1927 15.8527 22.9142 15.9853C22.6322 16.1195 22.3302 16.2129 22.0185 16.2623C21.6745 16.3154 21.3238 16.3451 20.9721 16.351C20.8999 16.3523 20.8428 16.353 20.7135 16.3542C20.5796 16.3554 20.5195 16.3561 20.4427 16.3575L12.2776 16.3574C12.2161 16.3561 12.1566 16.3554 12.024 16.3542C11.896 16.353 11.8397 16.3523 11.7704 16.351C11.4189 16.3462 11.0721 16.3175 10.7289 16.265C10.4252 16.2149 10.1226 16.1216 9.83894 15.9893C9.57271 15.8601 9.3202 15.6869 9.10035 15.4806L9.04609 15.4274C8.99216 15.3745 8.96882 15.3519 8.94198 15.3296C8.80354 15.2043 8.74052 15.1468 8.66575 15.0767L5.91058 12.4953L5.91016 12.495C5.88525 12.4737 5.87014 12.4609 5.85968 12.4522C5.8099 12.4073 5.76917 12.3688 5.73067 12.3304C5.65112 12.2582 5.60754 12.2179 5.50755 12.1242L3.35036 10.0999L3.14498 9.90743C3.10233 9.86747 3.06802 9.83384 2.98939 9.75556C2.81827 9.59731 2.67468 9.44923 2.54038 9.2939L2.49835 9.24958C2.46332 9.21587 2.43424 9.17722 2.41215 9.13509C2.35868 8.96151 2.35888 8.77724 2.41275 8.60373C2.43358 8.56329 2.4614 8.52629 2.49514 8.49425L2.5425 8.4444C2.67461 8.29008 2.81671 8.14353 2.96802 8.00556C3.06802 7.90693 3.10233 7.8733 3.14498 7.83334C3.25345 7.73171 3.30191 7.68574 3.3624 7.62608L5.50755 5.61654L5.71601 5.42123C5.75751 5.38235 5.77531 5.36573 5.79786 5.34492L5.84378 5.30625L5.84379 5.30625L5.84382 5.30622L5.84384 5.3062C5.87719 5.27819 5.89569 5.26265 5.91405 5.24544L8.31172 2.99576L8.66575 2.66406C8.74052 2.594 8.80354 2.53644 8.94198 2.41118C8.96882 2.38884 8.99216 2.3663 9.04429 2.31517L9.10005 2.26041C9.3202 2.0539 9.57271 1.8807 9.84896 1.74666C10.1226 1.61918 10.4252 1.52589 10.7373 1.47445C11.0701 1.42455 11.4168 1.39682 11.7644 1.39311C11.9167 1.38767 12.0263 1.38664 12.2776 1.38664C12.4576 1.38392 12.5942 1.38339 12.8995 1.38339H19.8796ZM13.2975 12.3162C13.2413 12.3679 13.1741 12.4101 13.0985 12.4393C12.8644 12.5299 12.5952 12.4793 12.4166 12.3112C12.1737 12.0825 12.1737 11.7129 12.4166 11.4843C12.452 11.451 12.491 11.4223 12.5326 11.3984L15.2309 8.86757L12.4166 6.23364L12.4251 6.22569C12.3699 6.173 12.3249 6.11008 12.2937 6.03919C12.1971 5.81993 12.2511 5.56771 12.4305 5.40034C12.6745 5.17273 13.069 5.17273 13.313 5.40034C13.3485 5.43344 13.3791 5.46987 13.4045 5.5087L16.1119 8.04122L18.8447 5.47803C18.8649 5.45076 18.8879 5.42475 18.9137 5.40032C19.0916 5.23285 19.3598 5.18243 19.5929 5.27262C19.826 5.36281 19.9781 5.5758 19.9781 5.8121C19.9781 5.96962 19.9105 6.11677 19.7964 6.2241L19.8031 6.23039L16.9933 8.86576L19.7354 11.4308C19.7603 11.4478 19.7841 11.4667 19.8066 11.4876C19.9854 11.6543 20.0392 11.9056 19.9429 12.124C19.8467 12.3424 19.6193 12.4849 19.3671 12.4849C19.1989 12.4849 19.0419 12.4216 18.9273 12.3147L18.9206 12.3209L16.1121 9.69233L13.3061 12.3242L13.2975 12.3162Z" fill="black"/>
</svg>
