<svg width="17" height="27" viewBox="0 0 17 27" fill="none" xmlns="http://www.w3.org/2000/svg">
<path fill-rule="evenodd" clip-rule="evenodd" d="M1.24007 10.9687C1.74817 10.9687 2.16006 11.3546 2.16006 11.8308C2.16006 11.8594 2.15857 11.8877 2.15566 11.9156V14.2893H2.15088V14.2962C2.15088 14.3124 2.15208 14.3286 2.15328 14.3448L2.15328 14.3448C2.15439 14.3596 2.15549 14.3744 2.15566 14.3893V14.7134H2.17296C2.44642 17.7793 5.12405 20.1689 8.40542 20.2754H8.7771C12.0595 20.1706 14.7386 17.7803 15.011 14.7134H15.0331V11.841L15.0402 11.841L15.0401 11.8308C15.0401 11.3546 15.452 10.9687 15.9601 10.9687C16.4682 10.9687 16.8801 11.3546 16.8801 11.8308C16.8801 11.8555 16.879 11.88 16.8768 11.9042V14.0203H16.8658H16.8654C16.8683 17.9805 13.7094 21.3168 9.51274 21.7858V24.4065H12.9793V24.4175C12.9915 24.4171 13.0038 24.4168 13.0161 24.4168C13.5242 24.4168 13.9361 24.8028 13.9361 25.2789C13.9361 25.755 13.5242 26.1409 13.0161 26.1409C13.0038 26.1409 12.9915 26.1407 12.9793 26.1402V26.1409H4.2172V26.1404C4.20622 26.1407 4.19519 26.1409 4.18411 26.1409C3.676 26.1409 3.2641 25.755 3.2641 25.2789C3.2641 24.8028 3.676 24.4168 4.18411 24.4168C4.19519 24.4168 4.20622 24.417 4.2172 24.4174V24.4065H7.69113V21.7858C3.48554 21.3278 0.314955 17.9876 0.320075 14.0203C0.320075 13.9997 0.321925 13.9801 0.323731 13.9609C0.325247 13.9449 0.326731 13.9292 0.327067 13.9134V11.9376C0.322447 11.9026 0.320068 11.8669 0.320068 11.8308C0.320068 11.3546 0.731966 10.9687 1.24007 10.9687ZM13.5607 12.5686C13.5607 13.0893 13.5607 13.6376 13.5313 14.1583C13.5087 14.6278 13.4322 15.0937 13.3031 15.5479C13.0151 16.5013 12.401 17.3396 11.5551 17.9341C9.82017 19.2168 7.37268 19.2168 5.6377 17.9341C4.78962 17.3414 4.17473 16.5024 3.88896 15.5479C3.7593 15.0939 3.68292 14.6279 3.66117 14.1583C3.62915 13.6376 3.63209 13.0893 3.63209 12.5686V8.21006C3.63209 7.69283 3.63504 5.40664 3.63209 5.02044C3.64664 4.54807 3.73339 4.08009 3.88969 3.6308C4.47883 1.65113 6.40347 0.281799 8.59679 0.281799C10.7901 0.281799 12.7147 1.65113 13.3039 3.6308C13.4422 4.08411 13.5286 4.54996 13.5615 5.02044C13.5946 5.54112 13.5615 7.69283 13.5615 8.21006V12.5686H13.5607ZM11.7207 13.3824C11.7207 13.7134 11.7134 13.8238 11.6913 14.1548C11.6786 14.4554 11.6305 14.7538 11.5478 15.0445C11.3715 15.6548 10.9879 16.1947 10.4548 16.5824C9.36268 17.3778 7.83389 17.3778 6.74174 16.5824C6.20665 16.1958 5.82146 15.6556 5.6451 15.0445C5.5642 14.7534 5.5161 14.4553 5.50159 14.1548C5.48319 13.8238 5.47951 13.7134 5.47951 13.3824C5.47951 8.79627 5.45743 5.39632 5.48687 5.03081C5.50815 4.7301 5.56116 4.43209 5.6451 4.14117C5.82146 3.53001 6.20665 2.98982 6.74174 2.60326C7.83389 1.80786 9.36268 1.80786 10.4548 2.60326C10.9879 2.99095 11.3715 3.53084 11.5478 4.14117C11.6413 4.43076 11.7005 4.72909 11.7244 5.03081C11.7502 5.42391 11.7207 8.78248 11.7207 13.3824Z" fill="#50555C"/>
</svg>
