<svg width="31" height="29" viewBox="0 0 31 29" fill="none" xmlns="http://www.w3.org/2000/svg">
<path fill-rule="evenodd" clip-rule="evenodd" d="M15.504 0.247437C23.7352 0.247437 30.408 6.4993 30.408 14.2114C30.408 21.9234 23.7352 28.1753 15.504 28.1753C7.27272 28.1753 0.599976 21.9234 0.599976 14.2114C0.599976 6.4993 7.27272 0.247437 15.504 0.247437ZM15.504 1.87421C22.7761 1.87498 28.6707 7.39884 28.6702 14.2123C28.6696 21.0257 22.7741 26.5487 15.502 26.5485C8.22988 26.5482 2.33481 21.0248 2.33481 14.2113C2.3349 10.9391 3.72245 7.80096 6.19217 5.48728C8.66189 3.17359 12.0115 1.87393 15.504 1.87421ZM10.7891 8.15447C10.3284 8.14933 9.88481 8.31748 9.55754 8.62129C9.23028 8.92509 9.04671 9.33917 9.04794 9.77081C9.04794 10.6718 9.82748 11.4022 10.7891 11.4022C11.7507 11.4022 12.5303 10.6718 12.5303 9.77081C12.5315 9.33917 12.3479 8.92509 12.0207 8.62129C11.6934 8.31748 11.2498 8.14933 10.7891 8.15447ZM25.4364 16.6166C24.6427 20.6347 20.5035 23.9896 15.5021 23.9896C10.5406 23.9896 6.42557 20.6836 5.58536 16.7109C5.41508 15.7194 6.28175 15.4855 7.09812 15.6706C9.82911 16.4104 12.6613 16.7703 15.504 16.7388C18.3402 16.7696 21.166 16.4109 23.8912 15.674C24.6848 15.4855 25.5347 15.6985 25.4364 16.6166ZM22.7421 17.1752C22.6646 17.2031 22.586 17.2241 22.5066 17.2485C22.4984 17.252 22.7607 17.1717 22.7529 17.1752C20.3963 17.783 17.9604 18.078 15.5163 18.0514C12.5996 18.0514 9.99098 17.7477 8.1958 17.1438C6.8943 16.7807 7.14395 18.2155 8.05868 18.6554C10.3988 19.6535 12.9449 20.1565 15.5159 20.1286C18.5742 20.1286 21.2994 19.4618 23.0994 18.5995C23.9512 18.0863 24.1196 16.7109 22.7421 17.1752ZM20.2285 8.15447C19.7678 8.14933 19.3242 8.31747 18.9969 8.62127C18.6695 8.92506 18.4859 9.33913 18.487 9.7708C18.4778 10.3594 18.8077 10.907 19.3502 11.2038C19.8928 11.5006 20.5639 11.5006 21.1065 11.2038C21.649 10.907 21.9789 10.3594 21.9697 9.7708C21.9708 9.33919 21.7872 8.92517 21.46 8.62139C21.1327 8.31761 20.6892 8.14942 20.2285 8.15447Z" fill="#50555C"/>
</svg>
