<svg width="15" height="15" viewBox="0 0 15 15" fill="none" xmlns="http://www.w3.org/2000/svg">
<path d="M12.0375 7.9727C11.7614 8.19717 11.3557 8.15587 11.1304 7.88037C10.8996 7.59811 10.9482 7.18088 11.2377 6.95918L12.3878 6.07827C13.4946 5.10383 13.602 3.41662 12.6275 2.30978C11.6531 1.20293 9.96587 1.0956 8.85903 2.07004L6.63134 4.03125C5.5245 5.00569 5.41716 6.6929 6.3916 7.79975C6.74699 8.20342 6.96109 8.39143 7.28967 8.47138C7.59589 8.54588 7.84752 8.79515 7.8169 9.10882C7.81294 9.14938 7.80434 9.18936 7.79129 9.22798L7.78696 9.24078C7.69016 9.52709 7.40759 9.71668 7.1111 9.65811C6.45503 9.52849 6.00753 9.25517 5.45339 8.62573C4.02277 7.00073 4.18035 4.52365 5.80535 3.09304L8.03304 1.13182C9.65805 -0.298796 12.1351 -0.141212 13.5657 1.48379C14.9964 3.1088 14.8388 5.58587 13.2138 7.01649L12.0375 7.9727Z" fill="#687684"/>
<path d="M2.7452 7.02736C3.02131 6.80287 3.42701 6.84414 3.65227 7.11963C3.88306 7.40187 3.83451 7.81911 3.54508 8.04082L2.39501 8.92181C1.28823 9.89632 1.18101 11.5835 2.15552 12.6903C3.13003 13.7971 4.81724 13.9043 5.92402 12.9298L8.15159 10.9685C9.25837 9.99396 9.3656 8.30674 8.39109 7.19996C8.03567 6.7963 7.82157 6.6083 7.49298 6.52838C7.18675 6.4539 6.93511 6.20464 6.96571 5.89097C6.96967 5.85041 6.97826 5.81043 6.99131 5.77181L6.99564 5.75901C7.09242 5.4727 7.37498 5.28308 7.67148 5.34164C8.32755 5.47122 8.77507 5.74451 9.32925 6.37391C10.76 7.99883 10.6025 10.4759 8.97764 11.9066L6.75007 13.868C5.12515 15.2987 2.64807 15.1413 1.21735 13.5164C-0.213368 11.8914 -0.055944 9.41437 1.56897 7.98364L2.7452 7.02736Z" fill="#687684"/>
</svg>
