<svg width="403" height="84" viewBox="0 0 403 84" fill="none" xmlns="http://www.w3.org/2000/svg">
<g clip-path="url(#clip0_4_1667)">
<g filter="url(#filter0_d_4_1667)">
<rect y="1" width="414" height="83" fill="white"/>
</g>
<path fill-rule="evenodd" clip-rule="evenodd" d="M267.2 24.5176C267.2 26.301 267.677 28.0519 268.581 29.5889L269.557 31.2464C269.753 31.5798 269.512 32 269.126 32H264.437C264.381 32.3327 264.287 32.6588 264.157 32.9721C263.931 33.518 263.6 34.0141 263.182 34.432C262.764 34.8498 262.268 35.1813 261.722 35.4075C261.176 35.6336 260.591 35.75 260 35.75C259.409 35.75 258.824 35.6336 258.278 35.4075C257.732 35.1813 257.236 34.8498 256.818 34.432C256.4 34.0141 256.069 33.518 255.843 32.9721C255.713 32.6588 255.619 32.3327 255.563 32H250.874C250.488 32 250.247 31.5798 250.443 31.2464L251.419 29.5889C252.323 28.0519 252.8 26.301 252.8 24.5176V22.6207C252.8 18.9642 256.024 16 260 16C263.976 16 267.2 18.9642 267.2 22.6207V24.5176ZM254.3 22.6207C254.3 19.9086 256.731 17.5 260 17.5C263.269 17.5 265.7 19.9086 265.7 22.6207V24.5176C265.7 26.5685 266.248 28.582 267.288 30.3496L267.377 30.5H252.623L252.711 30.3496C253.752 28.582 254.3 26.5685 254.3 24.5176V22.6207ZM257.095 32C257.13 32.1353 257.175 32.2683 257.228 32.3981C257.379 32.762 257.6 33.0927 257.879 33.3713C258.157 33.6499 258.488 33.8709 258.852 34.0216C259.216 34.1724 259.606 34.25 260 34.25C260.394 34.25 260.784 34.1724 261.148 34.0216C261.512 33.8709 261.843 33.6499 262.121 33.3713C262.4 33.0927 262.621 32.762 262.772 32.3981C262.825 32.2683 262.87 32.1353 262.905 32H257.095Z" fill="#687684"/>
<path fill-rule="evenodd" clip-rule="evenodd" d="M353 19C353 17.8954 353.895 17 355 17H371C372.105 17 373 17.8954 373 19V33C373 34.1046 372.105 35 371 35H355C353.895 35 353 34.1046 353 33V19ZM355 18.5H371C371.276 18.5 371.5 18.7239 371.5 19V19.9319L363.139 25.5062C363.055 25.5621 362.945 25.5621 362.861 25.5062L354.5 19.9319V19C354.5 18.7239 354.724 18.5 355 18.5ZM354.5 21.7347V33C354.5 33.2761 354.724 33.5 355 33.5H371C371.276 33.5 371.5 33.2761 371.5 33V21.7347L363.971 26.7542C363.383 27.1461 362.617 27.1461 362.029 26.7542L354.5 21.7347Z" fill="#687684"/>
<path fill-rule="evenodd" clip-rule="evenodd" d="M42.9542 22.0327L41.872 22.6511C41.5124 22.8567 41.0542 22.7317 40.8487 22.3721C40.6432 22.0124 40.7681 21.5543 41.1278 21.3488L50.6355 15.9158C51.4809 15.4327 52.5188 15.4327 53.3643 15.9158L62.872 21.3488C63.2316 21.5543 63.3566 22.0124 63.1511 22.3721C62.9456 22.7317 62.4874 22.8567 62.1278 22.6511L61.0456 22.0327L59.6001 32.5124C59.3442 34.3679 57.7583 35.75 55.8853 35.75H48.1145C46.2414 35.75 44.6556 34.3679 44.3997 32.5124L42.9542 22.0327ZM52 28.9999C53.7949 28.9999 55.25 27.5449 55.25 25.7499C55.25 23.955 53.7949 22.4999 52 22.4999C50.2051 22.4999 48.75 23.955 48.75 25.7499C48.75 27.5449 50.2051 28.9999 52 28.9999Z" fill="#4C9EEB"/>
<path fill-rule="evenodd" clip-rule="evenodd" d="M160.812 31.3723C159.244 32.6996 157.215 33.5 155 33.5C150.029 33.5 146 29.4706 146 24.5C146 19.5294 150.029 15.5 155 15.5C159.971 15.5 164 19.5294 164 24.5C164 26.7153 163.2 28.7436 161.872 30.3116L165.53 33.9697C165.823 34.2626 165.823 34.7374 165.53 35.0303C165.237 35.3232 164.763 35.3232 164.47 35.0303L160.812 31.3723ZM162.5 24.5C162.5 28.6421 159.142 32 155 32C150.858 32 147.5 28.6421 147.5 24.5C147.5 20.3579 150.858 17 155 17C159.142 17 162.5 20.3579 162.5 24.5Z" fill="#687684"/>
</g>
<defs>
<filter id="filter0_d_4_1667" x="0" y="0.67" width="414" height="83.33" filterUnits="userSpaceOnUse" color-interpolation-filters="sRGB">
<feFlood flood-opacity="0" result="BackgroundImageFix"/>
<feColorMatrix in="SourceAlpha" type="matrix" values="0 0 0 0 0 0 0 0 0 0 0 0 0 0 0 0 0 0 127 0" result="hardAlpha"/>
<feOffset dy="-0.33"/>
<feColorMatrix type="matrix" values="0 0 0 0 0.741176 0 0 0 0 0.772549 0 0 0 0 0.803922 0 0 0 1 0"/>
<feBlend mode="normal" in2="BackgroundImageFix" result="effect1_dropShadow_4_1667"/>
<feBlend mode="normal" in="SourceGraphic" in2="effect1_dropShadow_4_1667" result="shape"/>
</filter>
<clipPath id="clip0_4_1667">
<rect width="403" height="84" fill="white"/>
</clipPath>
</defs>
</svg>
