<svg width="47" height="45" viewBox="0 0 47 45" fill="none" xmlns="http://www.w3.org/2000/svg">
<g filter="url(#filter0_d_326_163)">
<path fill-rule="evenodd" clip-rule="evenodd" d="M0.320068 8.34624C0.320068 5.76999 0.320068 4.48187 0.821438 3.49788C1.26246 2.63233 1.96617 1.92862 2.83171 1.48761C3.81571 0.986237 5.10383 0.986237 7.68007 0.986237H38.9601C41.5363 0.986237 42.8244 0.986237 43.8084 1.48761C44.674 1.92862 45.3777 2.63233 45.8187 3.49788C46.3201 4.48187 46.3201 5.77 46.3201 8.34624V36.6262C46.3201 39.2025 46.3201 40.4906 45.8187 41.4746C45.3777 42.3401 44.674 43.0438 43.8084 43.4849C42.8244 43.9862 41.5363 43.9862 38.9601 43.9862H7.68007C5.10383 43.9862 3.81571 43.9862 2.83171 43.4849C1.96617 43.0438 1.26246 42.3401 0.821438 41.4746C0.320068 40.4906 0.320068 39.2025 0.320068 36.6262V8.34624Z" fill="#ADB3BC"/>
</g>
<defs>
<filter id="filter0_d_326_163" x="0.320068" y="0.986237" width="46" height="44" filterUnits="userSpaceOnUse" color-interpolation-filters="sRGB">
<feFlood flood-opacity="0" result="BackgroundImageFix"/>
<feColorMatrix in="SourceAlpha" type="matrix" values="0 0 0 0 0 0 0 0 0 0 0 0 0 0 0 0 0 0 127 0" result="hardAlpha"/>
<feOffset dy="1"/>
<feColorMatrix type="matrix" values="0 0 0 0 0.537255 0 0 0 0 0.541176 0 0 0 0 0.552941 0 0 0 1 0"/>
<feBlend mode="normal" in2="BackgroundImageFix" result="effect1_dropShadow_326_163"/>
<feBlend mode="normal" in="SourceGraphic" in2="effect1_dropShadow_326_163" result="shape"/>
</filter>
</defs>
</svg>
