<svg width="22" height="18" viewBox="0 0 22 18" fill="none" xmlns="http://www.w3.org/2000/svg">
<path d="M20.2113 11.4294H15.5778V15.5349C15.5778 15.6176 15.5778 15.6934 15.5778 15.7727C15.5778 15.8416 15.5778 15.9071 15.5748 15.9761C15.5728 16.1239 15.5591 16.2714 15.534 16.4173C15.5066 16.5623 15.457 16.7027 15.3868 16.8344C15.3149 16.9659 15.221 17.0858 15.1087 17.1895C14.9958 17.2931 14.8669 17.3803 14.7264 17.448C14.5841 17.5129 14.4329 17.5593 14.2772 17.5859C14.121 17.6088 13.9632 17.6215 13.8051 17.6238C13.7315 17.6238 13.6602 17.6272 13.5881 17.6272H7.62744C7.55385 17.6272 7.48285 17.6238 7.41037 17.6238C7.25227 17.6215 7.09454 17.6088 6.93833 17.5859C6.7827 17.5593 6.63169 17.5129 6.48947 17.448C6.34894 17.3803 6.22008 17.2931 6.10721 17.1895C5.99479 17.0858 5.90087 16.966 5.82906 16.8344C5.75884 16.7027 5.70927 16.5623 5.68189 16.4173C5.65658 16.2714 5.64281 16.1239 5.64069 15.9761C5.64069 15.9071 5.63774 15.8416 5.63774 15.7727C5.63774 15.6934 5.63774 15.6176 5.63774 15.5349V11.4294H0.930985C0.454901 11.4294 -0.155841 10.4676 0.415902 9.93333C0.90192 9.48176 8.54061 2.34627 10.1392 0.860569C10.2567 0.725313 10.4226 0.634659 10.6061 0.605484H10.6186C10.7773 0.61355 10.9247 0.68511 11.0233 0.801968C12.6219 2.28767 20.2867 9.48176 20.7731 9.93333C21.3452 10.4676 20.8662 11.4294 20.2113 11.4294Z" fill="black"/>
</svg>
